<svg xmlns="http://www.w3.org/2000/svg" version="1.1" xmlns:xlink="http://www.w3.org/1999/xlink" xmlns:svgjs="http://svgjs.dev/svgjs" width="2000" height="1500" viewBox="0 0 2000 1500"><rect width="2000" height="1500" fill="#ffffff"></rect><g transform="matrix(0.75,0,0,0.75,251.24442470468716,54.188866396761114)"><svg viewBox="0 0 266 247" data-background-color="#ffffff" preserveAspectRatio="xMidYMid meet" height="1857" width="2000" xmlns="http://www.w3.org/2000/svg" xmlns:xlink="http://www.w3.org/1999/xlink"><g id="tight-bounds" transform="matrix(1,0,0,1,-0.22067798096452407,-0.09999999999999432)"><svg viewBox="0 0 266.44135596192905 247.2" height="247.2" width="266.44135596192905"><g><svg viewBox="0 0 397.4975999999999 368.79187303805884" height="247.2" width="266.44135596192905"><g><rect width="397.4975999999999" height="6.680006972898912" x="0" y="207.28740215329643" fill="#000000" opacity="1" stroke-width="0" stroke="transparent" fill-opacity="1" class="rect-qz-0" data-fill-palette-color="secondary" rx="1%" id="qz-0" data-palette-color="#000000"></rect></g><g transform="matrix(1,0,0,1,0.9887999999999693,231.4543383746218)"><svg viewBox="0 0 395.52 137.337534663437" height="137.337534663437" width="395.52"><g id="textblocktransform"><svg viewBox="0 0 395.52 137.337534663437" height="137.337534663437" width="395.52" id="textblock"><g><svg viewBox="0 0 395.52 74.07330371755904" height="74.07330371755904" width="395.52"><g transform="matrix(1,0,0,1,0,0)"><svg width="395.52" viewBox="1.46 -38.38 208.82 39.11" height="74.07330371755904" data-palette-color="#000000"><path d="M11.99-1.93L11.99-1.93Q10.03-5 8.17-8.83 6.3-12.65 4.79-16.69 3.27-20.73 2.37-24.48 1.46-28.22 1.46-31.18L1.46-31.18Q1.46-31.81 1.73-32.18L1.73-32.18Q2.29-32.96 3.11-33.8 3.93-34.64 5.05-35.57L5.05-35.57Q5.42-35.86 5.74-35.86L5.74-35.86Q6.05-35.86 6.37-35.57L6.37-35.57Q7.52-34.64 8.33-33.8 9.13-32.96 9.69-32.18L9.69-32.18Q9.96-31.81 9.96-31.1L9.96-31.1 9.96-31.2Q9.96-29.13 10.53-26.21 11.11-23.29 12.12-20.08 13.13-16.87 14.44-13.85 15.75-10.84 17.24-8.59L17.24-8.59 17.38-8.59Q19.02-10.84 20.35-13.83 21.68-16.82 22.64-20.02 23.61-23.22 24.13-26.14 24.66-29.05 24.66-31.18L24.66-31.18 24.66-31.1Q24.66-31.81 24.9-32.18L24.9-32.18Q26.07-33.79 28.13-35.57L28.13-35.57Q28.52-35.86 28.81-35.86L28.81-35.86Q29.08-35.86 29.44-35.57L29.44-35.57Q30.54-34.64 31.32-33.8 32.1-32.96 32.67-32.18L32.67-32.18Q32.91-31.79 32.91-31.13L32.91-31.13Q32.91-28.91 32.29-25.99 31.67-23.07 30.59-19.82 29.52-16.58 28.15-13.33 26.78-10.08 25.27-7.14 23.75-4.2 22.24-1.93L22.24-1.93Q20.97 0 18.77 0L18.77 0 15.41 0Q13.21 0 11.99-1.93ZM1.46-31.1L1.46-31.2 1.46-31.18 1.46-31.1ZM32.91-31.13L32.91-31.18 32.91-31.1 32.91-31.13ZM36.55-33.2L36.55-33.2Q36.55-33.52 36.74-33.76 36.94-34.01 37.25-34.4L37.25-34.4Q37.94-35.18 38.84-36.05 39.74-36.91 40.67-37.72L40.67-37.72Q41.26-38.18 41.55-38.18L41.55-38.18Q41.84-38.18 42.45-37.72L42.45-37.72Q44.43-36.01 45.82-34.4L45.82-34.4Q46.14-34.03 46.35-33.78 46.56-33.52 46.56-33.2L46.56-33.2Q46.56-32.89 46.35-32.64 46.14-32.4 45.8-31.98L45.8-31.98Q45.14-31.23 44.26-30.36 43.38-29.49 42.45-28.71L42.45-28.71Q42.11-28.42 41.92-28.33 41.72-28.25 41.55-28.25L41.55-28.25Q41.38-28.25 41.2-28.33 41.01-28.42 40.62-28.71L40.62-28.71Q39.65-29.49 38.79-30.36 37.94-31.23 37.25-32.03L37.25-32.03Q36.94-32.42 36.74-32.65 36.55-32.89 36.55-33.2ZM45.38-23.71L45.38-1.29Q45.38-0.56 45.08-0.28 44.77 0 44.04 0L44.04 0 39.01 0Q38.28 0 37.97-0.28 37.67-0.56 37.67-1.29L37.67-1.29 37.67-23.71Q37.67-24.44 37.97-24.72 38.28-25 39.01-25L39.01-25 44.04-25Q44.77-25 45.08-24.72 45.38-24.44 45.38-23.71L45.38-23.71ZM58.98 0.61L58.98 0.61Q56.37 0.61 54.65 0.17 52.92-0.27 51.89-0.89 50.85-1.51 50.26-2.03L50.26-2.03Q49.82-2.44 50.17-2.95L50.17-2.95 52.66-6.64Q53.19-7.42 53.88-6.74L53.88-6.74Q54.58-6.05 55.79-5.41 57-4.76 58.81-4.76L58.81-4.76Q60.42-4.76 61.46-5.31 62.5-5.86 62.5-6.91L62.5-6.91Q62.5-7.64 62.03-8.11 61.57-8.57 60.4-9.06 59.22-9.55 57.12-10.3L57.12-10.3Q54.02-11.43 52.44-13.01 50.85-14.6 50.85-17.65L50.85-17.65Q50.85-20.46 52.4-22.22 53.95-23.97 56.38-24.79 58.81-25.61 61.45-25.61L61.45-25.61Q64.79-25.61 66.14-24.99 67.5-24.37 67.89-24.02L67.89-24.02Q68.26-23.71 68.4-23.29L68.4-23.29Q68.72-22.34 68.89-20.78L68.89-20.78Q68.99-19.87 68.43-19.58L68.43-19.58Q68.13-19.41 67.5-19.21 66.87-19.02 66.23-18.87 65.6-18.73 65.28-18.73L65.28-18.73Q65.18-18.73 65.07-18.79 64.96-18.85 64.69-19.09L64.69-19.09Q64.37-19.41 63.61-19.82 62.84-20.24 61.49-20.24L61.49-20.24Q60.18-20.24 59.28-19.81 58.39-19.38 58.39-18.31L58.39-18.31Q58.39-17.14 59.53-16.55 60.66-15.97 63.28-15.04L63.28-15.04Q65.33-14.33 66.85-13.49 68.38-12.65 69.21-11.29 70.04-9.94 70.04-7.64L70.04-7.64Q70.04-4.66 68.42-2.84 66.79-1.03 64.27-0.21 61.74 0.61 58.98 0.61ZM83.51 0.61L83.51 0.61Q74.82 0.61 74.82-9.91L74.82-9.91 74.8-22.31Q74.8-22.9 75.04-23.22L75.04-23.22Q76.07-24.56 78.04-26.12L78.04-26.12Q78.39-26.37 78.65-26.37L78.65-26.37Q78.97-26.37 79.26-26.12L79.26-26.12Q80.31-25.32 81.03-24.61 81.76-23.9 82.27-23.22L82.27-23.22Q82.51-22.9 82.51-22.31L82.51-22.31 82.51-10.6Q82.51-5.3 86.71-5.3L86.71-5.3Q88.79-5.3 90.03-6.75 91.28-8.2 91.28-10.69L91.28-10.69 91.28-22.31Q91.28-22.9 91.52-23.22L91.52-23.22Q92.55-24.56 94.52-26.12L94.52-26.12Q94.87-26.37 95.13-26.37L95.13-26.37Q95.45-26.37 95.74-26.12L95.74-26.12Q96.79-25.32 97.51-24.61 98.23-23.9 98.75-23.22L98.75-23.22Q98.99-22.9 98.99-22.31L98.99-22.31 98.99-1.12Q98.99-0.66 98.67-0.33 98.36 0 97.87 0L97.87 0 94.21 0Q93.82 0 93.51-0.11 93.21-0.22 92.94-0.54L92.94-0.54 91.42-2.49 91.25-2.49Q90.86-1.93 90.04-1.2 89.23-0.46 87.68 0.07 86.13 0.61 83.51 0.61ZM112.05 0.61L112.05 0.61Q108.46 0.61 106.35-1.4 104.24-3.42 104.24-6.96L104.24-6.96Q104.24-8.79 104.91-10.36 105.58-11.94 107.25-13.15 108.93-14.36 111.94-15.09 114.96-15.82 119.64-15.94L119.64-15.94Q119.64-18.16 118.53-19.14 117.42-20.12 115.2-20.12L115.2-20.12Q113.2-20.12 111.93-19.43 110.66-18.75 110.34-18.51L110.34-18.51Q110-18.21 109.51-18.29L109.51-18.29Q108.85-18.38 108.11-18.63 107.36-18.87 106.51-19.19L106.51-19.19Q106.39-19.24 106.24-19.35 106.09-19.46 106.07-19.68L106.07-19.68Q106.07-19.8 106.09-19.98 106.12-20.17 106.22-20.65L106.22-20.65Q106.31-21.14 106.51-21.86 106.7-22.58 106.87-22.97L106.87-22.97Q107.09-23.39 107.61-23.75L107.61-23.75Q108.02-24.1 110.12-24.85 112.22-25.61 116.2-25.61L116.2-25.61Q127.16-25.61 127.16-14.94L127.16-14.94 127.16-1.12Q127.16-0.66 126.91-0.33 126.65 0 126.04 0L126.04 0 122.38 0Q121.99 0 121.68-0.11 121.38-0.22 121.11-0.54L121.11-0.54 119.59-2.49 119.42-2.49Q118.3-0.85 116.41-0.12 114.52 0.61 112.05 0.61ZM114.74-5.05L114.74-5.05Q116.98-5.05 118.13-6.2 119.28-7.35 119.59-8.57L119.59-8.57 119.59-11.28Q116.2-11.28 114.5-10.75 112.81-10.23 112.25-9.39 111.68-8.54 111.68-7.57L111.68-7.57Q111.68-6.15 112.56-5.6 113.44-5.05 114.74-5.05ZM142.05-1.83L136.95 0.51Q136.44 0.73 136.22 0.73L136.22 0.73Q136 0.73 135.75 0.56L135.75 0.56Q135.19 0.17 134.47-1.35 133.75-2.88 133.75-6.05L133.75-6.05 133.75-34.33Q133.75-34.91 134-35.23L134-35.23Q135.02-36.57 137-38.13L137-38.13Q137.34-38.38 137.61-38.38L137.61-38.38Q137.93-38.38 138.22-38.13L138.22-38.13Q139.27-37.33 139.99-36.62 140.71-35.91 141.22-35.23L141.22-35.23Q141.47-34.91 141.47-34.33L141.47-34.33 141.47-7.54Q141.47-5.93 141.74-4.8 142-3.66 142.37-2.98L142.37-2.98Q142.79-2.17 142.05-1.83L142.05-1.83ZM147.03-33.2L147.03-33.2Q147.03-33.52 147.23-33.76 147.42-34.01 147.74-34.4L147.74-34.4Q148.42-35.18 149.33-36.05 150.23-36.91 151.16-37.72L151.16-37.72Q151.74-38.18 152.04-38.18L152.04-38.18Q152.33-38.18 152.94-37.72L152.94-37.72Q154.92-36.01 156.31-34.4L156.31-34.4Q156.63-34.03 156.83-33.78 157.04-33.52 157.04-33.2L157.04-33.2Q157.04-32.89 156.83-32.64 156.63-32.4 156.28-31.98L156.28-31.98Q155.62-31.23 154.75-30.36 153.87-29.49 152.94-28.71L152.94-28.71Q152.6-28.42 152.4-28.33 152.21-28.25 152.04-28.25L152.04-28.25Q151.86-28.25 151.68-28.33 151.5-28.42 151.11-28.71L151.11-28.71Q150.13-29.49 149.28-30.36 148.42-31.23 147.74-32.03L147.74-32.03Q147.42-32.42 147.23-32.65 147.03-32.89 147.03-33.2ZM155.87-23.71L155.87-1.29Q155.87-0.56 155.56-0.28 155.26 0 154.53 0L154.53 0 149.5 0Q148.76 0 148.46-0.28 148.15-0.56 148.15-1.29L148.15-1.29 148.15-23.71Q148.15-24.44 148.46-24.72 148.76-25 149.5-25L149.5-25 154.53-25Q155.26-25 155.56-24.72 155.87-24.44 155.87-23.71L155.87-23.71ZM180.33 0L163.24 0Q162.02 0 161.16-0.67 160.31-1.34 160.25-2.5 160.19-3.66 161.34-5.13L161.34-5.13 172.39-19.31 163.04-19.31Q162.6-19.31 162.36-19.48L162.36-19.48Q161.36-20.29 160.26-21.7L160.26-21.7Q160.07-22.02 160.07-22.17L160.07-22.17Q160.07-22.34 160.26-22.61L160.26-22.61Q161.36-24.02 162.36-24.83L162.36-24.83Q162.65-25 163.04-25L163.04-25 178.94-25Q181.38-25 182.04-23.43 182.7-21.85 181.18-19.9L181.18-19.9 170.3-5.69 180.33-5.69Q180.77-5.69 181.01-5.52L181.01-5.52Q182.01-4.71 183.11-3.3L183.11-3.3Q183.31-2.98 183.31-2.83L183.31-2.83Q183.31-2.66 183.11-2.39L183.11-2.39Q182.01-0.98 181.01-0.17L181.01-0.17Q180.72 0 180.33 0L180.33 0ZM199.71 0.61L199.71 0.61Q195.59 0.61 192.53-0.72 189.48-2.05 187.8-4.86 186.11-7.67 186.11-12.11L186.11-12.11Q186.11-18.77 189.53-22.19 192.95-25.61 198.61-25.61L198.61-25.61Q202.3-25.61 204.85-24.29 207.4-22.97 208.73-20.65 210.06-18.33 210.06-15.36L210.06-15.36Q210.06-12.45 208.57-11.3 207.08-10.16 204.23-10.16L204.23-10.16 193.75-10.16Q193.95-7.64 195.6-6.32 197.25-5 200.08-5L200.08-5Q202.32-5 203.68-5.68 205.03-6.35 205.57-6.74L205.57-6.74Q206.03-7.08 206.62-7.06L206.62-7.06Q207.08-7.06 207.95-6.87 208.82-6.69 209.67-6.2L209.67-6.2Q210.28-5.88 210.28-5.32L210.28-5.32Q210.28-5 210.16-4.42L210.16-4.42Q210.09-4.08 209.92-3.43 209.75-2.78 209.48-2.22L209.48-2.22Q209.33-1.95 209.01-1.71L209.01-1.71Q208.52-1.37 207.44-0.81 206.35-0.24 204.47 0.18 202.59 0.61 199.71 0.61ZM193.71-15.16L193.71-15.16 201.66-15.16Q202.91-15.16 202.91-16.31L202.91-16.31Q202.91-18.04 201.82-19.23 200.74-20.41 198.56-20.41L198.56-20.41Q196.2-20.41 195.08-18.9 193.97-17.38 193.71-15.16Z" opacity="1" transform="matrix(1,0,0,1,0,0)" fill="#000000" class="wordmark-text-0" data-fill-palette-color="primary" id="text-0"></path></svg></g></svg></g><g transform="matrix(1,0,0,1,0,91.5602329659855)"><svg viewBox="0 0 395.52 45.777301697451485" height="45.777301697451485" width="395.52"><g transform="matrix(1,0,0,1,0,0)"><svg width="395.52" viewBox="0.49 -36.84 325.27 37.650000000000006" height="45.777301697451485" data-palette-color="#000000"><path d="M32.79-33.54L32.79-31.4 29.91-30.86 18.7 0.81 14.89 0.81 3.44-30.91 0.49-31.4 0.49-33.54 12.45-33.54 12.45-31.4 9.5-31.15Q9.28-31.13 9.16-30.88 9.03-30.64 9.03-30.42L9.03-30.42Q9.03-30.3 9.06-30.25L9.06-30.25 17.85-5.54 26.29-30.15Q26.32-30.2 26.32-30.32L26.32-30.32Q26.32-30.59 26.1-30.86 25.88-31.13 25.61-31.15L25.61-31.15 22.85-31.4 22.85-33.54 32.79-33.54ZM60.14-32.35L60.14-32.35Q60.14-31.08 59.26-30.16 58.38-29.25 57.11-29.25L57.11-29.25Q55.84-29.25 54.93-30.16 54.01-31.08 54.01-32.35L54.01-32.35Q54.01-33.64 54.93-34.52 55.84-35.4 57.11-35.4L57.11-35.4Q58.38-35.4 59.26-34.52 60.14-33.64 60.14-32.35ZM62.7-1.95L62.7 0 50.96 0 50.96-1.95 53.4-2.1Q54.45-2.17 54.45-3.2L54.45-3.2 54.45-21.04 51.01-21.04 51.01-22.8 57.11-24.71 59.09-24.71 59.09-3.2Q59.09-2.73 59.4-2.44 59.7-2.15 60.14-2.1L60.14-2.1 62.7-1.95ZM98.55-7.25L98.55-7.25Q98.55-3.56 96.01-1.48 93.48 0.61 89.01 0.61L89.01 0.61Q86.71 0.61 84.77 0.13 82.83-0.34 82.07-0.66L82.07-0.66 82.07-7.3 84.61-7.3 85.22-3.05Q85.98-2.56 87.09-2.11 88.2-1.66 89.67-1.66L89.67-1.66Q91.82-1.66 92.99-2.86 94.16-4.05 94.16-5.54L94.16-5.54Q94.16-7.52 92.74-8.53 91.33-9.55 88.71-10.79L88.71-10.79 88.06-11.11Q85.32-12.4 83.87-13.81 82.42-15.21 82.42-17.46L82.42-17.46Q82.42-20.8 84.76-22.75 87.1-24.71 91.42-24.71L91.42-24.71Q93.62-24.71 95.34-24.3 97.06-23.9 97.82-23.56L97.82-23.56 97.82-17.65 95.21-17.65 94.82-21.14Q94.28-21.56 93.23-21.92 92.18-22.29 91.01-22.29L91.01-22.29Q88.96-22.29 87.96-21.35 86.96-20.41 86.96-18.95L86.96-18.95Q86.96-17.26 88.17-16.27 89.37-15.28 92.55-13.84L92.55-13.84Q95.16-12.65 96.86-11.17 98.55-9.69 98.55-7.25ZM143.61-1.95L143.61 0 135.67 0 135.67-2.86Q134.82-2.2 133.5-1.39 132.18-0.59 130.67 0.01 129.15 0.61 127.66 0.61L127.66 0.61Q124.44 0.61 122.6-1.33 120.76-3.27 120.76-7.5L120.76-7.5 120.76-21.04 117.26-21.04 117.26-22.75 123.42-24.71 125.42-24.71 125.42-8.45Q125.42-5.79 126.5-4.3 127.59-2.81 130.25-2.81L130.25-2.81Q131.79-2.81 133.28-3.33 134.77-3.86 135.67-4.3L135.67-4.3 135.67-21.04 132.16-21.04 132.16-22.75 138.26-24.71 140.31-24.71 140.31-3.2Q140.31-2.73 140.64-2.44 140.97-2.15 141.41-2.1L141.41-2.1 143.61-1.95ZM185.22-1.95L185.22 0 177.82 0 177.16-2.95Q177.16-2.95 176.42-2.42 175.67-1.88 174.45-1.17 173.23-0.46 171.75 0.07 170.28 0.61 168.81 0.61L168.81 0.61Q166.1 0.61 164.21-1.2 162.32-3 162.32-6.15L162.32-6.15Q162.32-7.54 162.82-8.74 163.32-9.94 164.82-11.02 166.32-12.11 169.29-13.15 172.25-14.18 177.16-15.26L177.16-15.26 177.16-17.41Q177.16-22.34 172.5-22.34L172.5-22.34Q171.2-22.34 170.26-22.09 169.32-21.85 168.96-21.7L168.96-21.7 168.96-17.36 165.32-17.36Q164.64-17.36 164.05-17.61 163.46-17.87 163.46-18.8L163.46-18.8Q163.46-20.85 165.03-22.16 166.59-23.46 168.99-24.08 171.4-24.71 173.86-24.71L173.86-24.71Q176.97-24.71 178.67-23.74 180.38-22.78 181.07-21.08 181.75-19.38 181.75-17.21L181.75-17.21 181.75-3.2Q181.75-2.73 182.06-2.44 182.36-2.15 182.8-2.1L182.8-2.1 185.22-1.95ZM177.16-4.71L177.16-4.71 177.16-13.35Q173.79-12.52 171.8-11.68 169.81-10.84 168.84-10 167.86-9.16 167.55-8.29 167.25-7.42 167.25-6.49L167.25-6.49Q167.25-4.96 168.24-3.65 169.23-2.34 171.01-2.34L171.01-2.34Q172.01-2.34 173.08-2.7 174.16-3.05 175.09-3.53 176.01-4 176.59-4.36 177.16-4.71 177.16-4.71ZM215.5-1.95L215.5 0 203.34 0 203.34-1.95 206-2.1Q206.34-2.1 206.72-2.47 207.1-2.83 207.1-3.15L207.1-3.15 207.1-33.25 203.29-33.25 203.29-34.91 209.69-36.84 211.74-36.84 211.74-3.15Q211.74-2.83 212.11-2.47 212.47-2.1 212.79-2.1L212.79-2.1 215.5-1.95ZM243.68-32.35L243.68-32.35Q243.68-31.08 242.8-30.16 241.93-29.25 240.66-29.25L240.66-29.25Q239.39-29.25 238.47-30.16 237.56-31.08 237.56-32.35L237.56-32.35Q237.56-33.64 238.47-34.52 239.39-35.4 240.66-35.4L240.66-35.4Q241.93-35.4 242.8-34.52 243.68-33.64 243.68-32.35ZM246.25-1.95L246.25 0 234.5 0 234.5-1.95 236.94-2.1Q237.99-2.17 237.99-3.2L237.99-3.2 237.99-21.04 234.55-21.04 234.55-22.8 240.66-24.71 242.63-24.71 242.63-3.2Q242.63-2.73 242.94-2.44 243.24-2.15 243.68-2.1L243.68-2.1 246.25-1.95ZM285.32-7.54L285.32 0 265.62 0 265.62-2.66 278.85-21.75 270.16-21.75Q269.79-21.75 269.51-21.4 269.23-21.04 269.16-20.7L269.16-20.7 268.67-16.99 266.1-16.99 266.1-24.1 284.61-24.1 284.61-22.05 270.91-2.39 281-2.39Q281.34-2.39 281.71-2.81 282.07-3.22 282.1-3.59L282.1-3.59 282.61-7.54 285.32-7.54ZM325.76-5.54L325.76-2.49Q323.66-1.2 321.23-0.29 318.8 0.61 316.26 0.61L316.26 0.61Q313.23 0.61 310.58-0.74 307.94-2.1 306.3-4.86 304.66-7.62 304.66-11.79L304.66-11.79Q304.66-15.7 306.18-18.6 307.69-21.51 310.35-23.11 313.01-24.71 316.41-24.71L316.41-24.71Q321.07-24.71 323.41-21.81 325.76-18.92 325.76-14.45L325.76-14.45Q325.76-14.21 325.76-13.81 325.76-13.4 325.71-13.06L325.71-13.06 309.5-13.06Q309.5-11.16 309.9-9.27 310.3-7.37 311.26-5.83 312.21-4.3 313.82-3.37 315.43-2.44 317.85-2.44L317.85-2.44Q320-2.44 322.03-3.43 324.07-4.42 325.76-5.54L325.76-5.54ZM309.77-15.31L320.75-15.31 320.75-16.41Q320.75-18.87 319.57-20.56 318.38-22.24 315.89-22.24L315.89-22.24Q313.43-22.24 311.69-20.39 309.96-18.53 309.77-15.31L309.77-15.31Z" opacity="1" transform="matrix(1,0,0,1,0,0)" fill="#000000" class="slogan-text-1" data-fill-palette-color="secondary" id="text-1"></path></svg></g></svg></g></svg></g></svg></g><g transform="matrix(1,0,0,1,111.91951511909488,0)"><svg viewBox="0 0 173.65856976181016 189.80047290486996" height="189.80047290486996" width="173.65856976181016"><g><svg xmlns="http://www.w3.org/2000/svg" xmlns:xlink="http://www.w3.org/1999/xlink" version="1.1" x="8" y="0" viewBox="12.709325638471572 5.217007764783015 74.57862421572935 89.78299223521698" enable-background="new 0 0 100 100" xml:space="preserve" height="189.80047290486996" width="157.65856976181016" class="icon-icon-0" data-fill-palette-color="accent" id="icon-0"><path d="M67.863 24.305C62.931 19.373 56.466 16.906 50 16.906s-12.93 2.467-17.861 7.398c-9.869 9.865-9.869 25.861 0 35.722 4.13 4.132 6.53 9.337 7.203 14.715 0.131 1.044 1.266 3.146 3.239 3.146 0.765 0 14.074 0 14.839 0 1.973 0 3.107-2.103 3.238-3.146 0.674-5.378 3.072-10.583 7.205-14.712C77.729 50.166 77.729 34.169 67.863 24.305zM37.279 29.473c-3.037 3.24-4.708 7.474-4.708 11.919 0 0.819-0.666 1.484-1.486 1.484-0.82 0-1.485-0.665-1.485-1.484 0-5.203 1.957-10.157 5.512-13.95 0.561-0.6 1.502-0.628 2.1-0.068C37.811 27.935 37.839 28.875 37.279 29.473zM60.548 81.182c-0.199-1.047-1.118-1.807-2.19-1.807h-16.76c-1.229 0-2.224 0.997-2.224 2.226 0 1.233 0.996 2.229 2.224 2.229h5.126l-5.948 2.365c-0.993 0.396-1.566 1.439-1.367 2.49 0.204 1.046 1.121 1.807 2.188 1.807h16.759c1.229 0 2.229-0.999 2.229-2.225 0-1.232-1-2.231-2.229-2.231h-5.124l5.949-2.363C60.175 83.279 60.748 82.233 60.548 81.182zM44.106 92.029c0 1.633 1.337 2.971 2.97 2.971h5.849c1.633 0 2.969-1.338 2.969-2.971v-0.091H44.106V92.029zM78.838 36.028c-0.552 0-1.057-0.369-1.206-0.927-0.179-0.667 0.218-1.353 0.884-1.531l7.199-1.93c0.666-0.175 1.354 0.217 1.53 0.884 0.179 0.667-0.218 1.353-0.884 1.531l-7.199 1.93C79.055 36.014 78.945 36.028 78.838 36.028zM21.161 36.028c-0.107 0-0.216-0.014-0.325-0.043l-7.2-1.93c-0.667-0.179-1.062-0.864-0.884-1.531 0.179-0.667 0.868-1.058 1.531-0.884l7.2 1.93c0.667 0.179 1.062 0.864 0.884 1.531C22.218 35.66 21.713 36.028 21.161 36.028zM28.792 22.548c-0.32 0-0.64-0.122-0.884-0.366l-5.174-5.174c-0.488-0.488-0.488-1.279 0-1.768 0.488-0.489 1.279-0.488 1.768 0l5.174 5.174c0.488 0.488 0.488 1.279 0 1.768C29.431 22.426 29.111 22.548 28.792 22.548zM42.21 14.691c-0.552 0-1.057-0.369-1.207-0.927L39.134 6.79c-0.179-0.667 0.217-1.353 0.884-1.531 0.667-0.176 1.352 0.217 1.531 0.884l1.869 6.974c0.179 0.667-0.217 1.353-0.884 1.531C42.426 14.677 42.317 14.691 42.21 14.691zM57.788 14.69c-0.106 0-0.216-0.014-0.324-0.043-0.667-0.179-1.062-0.864-0.884-1.531l1.867-6.973c0.18-0.667 0.865-1.06 1.531-0.884 0.666 0.179 1.062 0.864 0.883 1.531l-1.867 6.973C58.846 14.322 58.34 14.69 57.788 14.69zM71.207 22.547c-0.32 0-0.641-0.122-0.885-0.366-0.487-0.488-0.487-1.28 0-1.768l5.176-5.174c0.488-0.489 1.279-0.487 1.768 0 0.488 0.488 0.488 1.28 0 1.768l-5.175 5.174C71.848 22.425 71.527 22.547 71.207 22.547z" fill="#000000" data-fill-palette-color="accent"></path></svg></g></svg></g><g></g></svg></g><defs></defs></svg><rect width="266.44135596192905" height="247.2" fill="none" stroke="none" visibility="hidden"></rect></g></svg></g></svg>