<svg xmlns="http://www.w3.org/2000/svg" version="1.1" xmlns:xlink="http://www.w3.org/1999/xlink" xmlns:svgjs="http://svgjs.dev/svgjs" width="2000" height="1500" viewBox="0 0 2000 1500"><rect width="2000" height="1500" fill="#dddd6b"></rect><g transform="matrix(0.75,0,0,0.75,250,0)"><svg viewBox="0 0 280 280" data-background-color="#dddd6b" preserveAspectRatio="xMidYMid meet" height="2000" width="2000" xmlns="http://www.w3.org/2000/svg" xmlns:xlink="http://www.w3.org/1999/xlink"><g id="tight-bounds" transform="matrix(1,0,0,1,0,0)"><svg viewBox="0 0 280 280" height="280" width="280"><g><svg viewBox="0 0 280 280" height="280" width="280"><g><svg viewBox="0 0 280 280" height="280" width="280"><g id="textblocktransform"><svg viewBox="0 0 280 280" height="280" width="280" id="textblock"><g><svg viewBox="0 0 280 280" height="280" width="280"><g transform="matrix(1,0,0,1,74.00336708925556,82.03065349022019)"><svg viewBox="0 0 131.99326582148888 115.93869301955962" height="115.93869301955962" width="131.99326582148888"><g id="icon-0"><svg xmlns="http://www.w3.org/2000/svg" xmlns:xlink="http://www.w3.org/1999/xlink" version="1.0" x="0" y="0" viewBox="12.5 17.00075 74 64.99925" enable-background="new 0 0 100 100" xml:space="preserve" height="115.93869301955962" width="131.99326582148888" class="icon-xg-0" data-fill-palette-color="accent" id="xg-0"><g fill="#b2572b" data-fill-palette-color="accent"><polygon points="68.054,54.686 86.5,54.686 86.5,82 68.054,82 68.054,54.686  " fill="#b2572b" data-fill-palette-color="accent"></polygon><path d="M36.545 36.5l-4.174-4.169c-3.511-3.507-3.511-9.193 0-12.7 3.511-3.507 9.204-3.507 12.715 0l4.174 4.169 4.174-4.169c3.512-3.507 9.204-3.507 12.716 0 3.511 3.507 3.511 9.193 0 12.7L61.975 36.5 49.26 49.201 36.545 36.5 36.545 36.5z" fill="#b2572b" data-fill-palette-color="accent"></path><polygon points="12.5,72.895 30.946,72.895 30.946,82 12.5,82 12.5,72.895  " fill="#b2572b" data-fill-palette-color="accent"></polygon><polygon points="40.276,63.789 58.723,63.789 58.723,82 40.276,82 40.276,63.789  " fill="#b2572b" data-fill-palette-color="accent"></polygon><path d="M68.054 54.686H86.5V82H68.054V54.686L68.054 54.686zM36.545 36.5l-4.174-4.169c-3.511-3.507-3.511-9.193 0-12.7 3.511-3.507 9.204-3.507 12.715 0l4.174 4.169 4.174-4.169c3.512-3.507 9.204-3.507 12.716 0 3.511 3.507 3.511 9.193 0 12.7L61.975 36.5 49.26 49.201 36.545 36.5 36.545 36.5zM12.5 72.895h18.446V82H12.5V72.895L12.5 72.895zM40.276 63.789h18.446V82H40.276V63.789L40.276 63.789z" fill="#b2572b" data-fill-palette-color="accent"></path></g></svg></g></svg></g><g id="text-0"><path d="M31.873 97.873l0.201-0.53-21.932-18.673 0.832-2.187-1.136-0.432-2.799 7.354 1.136 0.432 1.333-3.502 17.896 15.187-23.695 0.052 1.332-3.502-1.136-0.433-3.767 9.901 1.136 0.432 1.001-2.631 25.295 0.101c1.968 0.012 3.169-0.166 3.605-0.534v0c0.287-0.223 0.52-0.568 0.698-1.035z" fill="#b2572b" data-fill-palette-color="primary"></path><path d="M50.744 62.425v0l-1.451 1.848-14.743-11.576-4.484 5.711 0.924 0.726 2.314-2.947 11.613 9.118c1.131 0.888 1.521 1.808 1.168 2.759v0c-0.196 0.447-0.622 1.087-1.276 1.92v0l0.924 0.726 6.654-8.475c-0.542-0.425-0.98-0.473-1.315-0.145v0c-0.122 0.101-0.232 0.213-0.328 0.335zM29.515 48.024v0c-0.86-0.675-1.774-0.775-2.74-0.298v0c-0.351 0.196-0.633 0.43-0.846 0.7v0c-0.675 0.86-0.766 1.785-0.272 2.774v0c0.175 0.335 0.408 0.617 0.7 0.846v0c0.913 0.717 1.859 0.803 2.837 0.257v0c0.314-0.192 0.577-0.423 0.789-0.693v0c0.675-0.86 0.756-1.771 0.241-2.734v0c-0.175-0.335-0.411-0.619-0.709-0.852z" fill="#b2572b" data-fill-palette-color="primary"></path><path d="M72.395 43.593v0c1.747-1.271 2.539-2.656 2.375-4.156v0c-0.05-0.54-0.242-1.039-0.575-1.497v0c-0.77-1.059-2.201-1.409-4.293-1.048v0c-0.455 0.064-1.183 0.205-2.184 0.424v0c-2.693 0.648-4.656 0.84-5.891 0.577v0c-1.341-0.294-2.416-0.998-3.226-2.112v0c-1.267-1.742-1.197-3.667 0.209-5.774v0c0.646-0.971 1.488-1.833 2.526-2.588v0c1.665-1.211 3.36-1.905 5.084-2.082v0c-0.532-0.732-0.656-1.276-0.372-1.632v0c0.133-0.138 0.287-0.271 0.461-0.398v0l3.448 4.742-0.982 0.715c-1.741-2.29-3.885-2.53-6.433-0.719v0c-1.895 1.378-2.664 2.788-2.307 4.232v0c0.087 0.396 0.25 0.757 0.488 1.084v0c0.79 1.087 2.245 1.44 4.364 1.06v0c0.486-0.078 1.218-0.243 2.195-0.495v0c2.655-0.653 4.6-0.849 5.834-0.586v0c1.319 0.276 2.384 0.971 3.194 2.085v0c1.485 2.042 1.389 4.195-0.288 6.458v0c-0.633 0.886-1.441 1.686-2.424 2.401v0c-1.834 1.3-3.745 1.997-5.731 2.088v0c0.476 0.655 0.589 1.154 0.337 1.496v0c-0.137 0.133-0.307 0.273-0.509 0.42v0l-4.187-5.758 1.065-0.774c2.419 3.224 5.027 3.837 7.822 1.837z" fill="#b2572b" data-fill-palette-color="primary"></path><path d="M118.457 23.417v0l-2.243 0.666-5.332-17.971-7.058 2.094 0.334 1.127 3.689-1.095 2.878 9.699c0.801 2.699 0.443 4.957-1.075 6.773v0c-0.666 0.817-1.449 1.359-2.348 1.626v0c-2.459 0.73-4.256-0.103-5.39-2.499v0c-0.183-0.403-0.346-0.845-0.487-1.324v0l-3.708-12.495-6.825 2.026 0.334 1.126 3.456-1.026 3.172 10.689c1.553 5.117 4.46 7.057 8.72 5.821v0c2.246-0.666 3.816-2.125 4.712-4.377v0c0.334-0.845 0.541-1.738 0.621-2.677v0l1.68 4.487 6.33-1.878c-0.196-0.66-0.526-0.953-0.989-0.879v0c-0.133 0.004-0.289 0.033-0.471 0.087z" fill="#b2572b" data-fill-palette-color="primary"></path><path d="M155.641 24.112v0c2.399 0.145 3.811-1.224 4.235-4.107v0c0.045-0.187 0.072-0.357 0.082-0.512v0l-1.22-0.125c-0.353 2.265-1.03 3.384-2.029 3.358v0c-0.812-0.11-1.184-0.947-1.117-2.513v0l0.597-9.866c0.27-4.461-1.819-6.951-6.265-7.47v0c-0.283-0.017-0.563-0.034-0.839-0.051v0c-3.498-0.211-5.888 0.456-7.172 2.002v0c-0.403 0.51-0.62 1.031-0.653 1.563v0c-0.058 0.964 0.359 1.55 1.253 1.76v0c0.153 0.043 0.307 0.069 0.462 0.079v0c0.721 0.044 1.281-0.376 1.679-1.258v0c0.508-1.126 0.846-1.795 1.015-2.009v0c0.64-0.746 1.584-1.081 2.83-1.006v0c2.92 0.366 4.336 2.065 4.247 5.097v0l-0.178 2.951c-7.332-0.443-11.619 0.83-12.862 3.819v0c-0.225 0.582-0.358 1.216-0.399 1.903v0c-0.143 2.372 0.803 4.056 2.84 5.052v0c0.822 0.395 1.701 0.62 2.637 0.677v0c2.278 0.138 4.242-0.525 5.893-1.988v0c0.595-0.559 1.054-1.157 1.377-1.794v0c0.21 2.799 1.405 4.278 3.587 4.438zM146.444 21.679v0c-1.907-0.115-3.022-1.136-3.346-3.063v0c-0.061-0.443-0.076-0.931-0.043-1.464v0c0.126-2.089 1.406-3.341 3.839-3.755v0c1.298-0.206 3.163-0.248 5.598-0.128v0l-0.226 3.74c-0.602 2.121-1.832 3.565-3.691 4.332v0c-0.74 0.266-1.45 0.379-2.131 0.338z" fill="#b2572b" data-fill-palette-color="primary"></path><path d="M187.08 30.786v0l-2.375-0.876 10.135-27.478-6.594-2.432-0.403 1.093 3.297 1.216-8.761 23.753c-0.498 1.349-1.174 2.013-2.031 1.993v0c-0.497-0.018-1.243-0.21-2.237-0.577v0l-0.407 1.102 10.072 3.715c0.238-0.646 0.146-1.079-0.276-1.3v0c-0.102-0.074-0.242-0.143-0.42-0.209z" fill="#b2572b" data-fill-palette-color="primary"></path><path d="M213.668 46.435v0l-1.92-1.354 10.805-15.318-5.933-4.185-0.677 0.96 3.062 2.16-8.512 12.065c-0.829 1.175-1.727 1.611-2.695 1.308v0c-0.456-0.173-1.117-0.565-1.983-1.176v0l-0.678 0.96 8.805 6.211c0.397-0.563 0.423-1.003 0.077-1.321v0c-0.107-0.117-0.225-0.22-0.351-0.31zM226.963 24.496v0c0.63-0.894 0.683-1.811 0.157-2.752v0c-0.214-0.341-0.462-0.611-0.743-0.809v0c-0.894-0.63-1.822-0.674-2.784-0.13v0c-0.325 0.192-0.595 0.439-0.809 0.743v0c-0.669 0.949-0.707 1.898-0.112 2.846v0c0.207 0.303 0.452 0.554 0.734 0.753v0c0.894 0.63 1.808 0.664 2.742 0.101v0c0.325-0.192 0.597-0.442 0.815-0.752z" fill="#b2572b" data-fill-palette-color="primary"></path><path d="M236.828 70.679l-5.234-6.616 21.96-1.181 0.771-0.609-9.827-12.421-5.045 3.449 0.439 0.556 2.723-0.721c1.603-0.39 2.824-0.082 3.663 0.924v0l4.681 5.917-22.21 0.784-0.81 0.641 10.613 13.414 5.639-4.281-0.408-0.516-2.371 1.166c-1.558 0.794-2.873 0.818-3.945 0.073v0c-0.25-0.164-0.463-0.357-0.639-0.579z" fill="#b2572b" data-fill-palette-color="primary"></path><path d="M269.507 95.029v0c0.762 2.05 0.402 3.736-1.08 5.058v0c-0.464 0.439-1.018 0.778-1.664 1.018v0c-1.468 0.546-2.625 0.176-3.469-1.109v0c-0.418-0.68-0.862-1.7-1.332-3.06v0l-1.595-4.701c3.421-1.106 6.025-0.824 7.812 0.846v0c0.604 0.539 1.047 1.188 1.328 1.948zM258.548 107.809v0l-0.01-1.249c-2.609-0.197-4.483-1.384-5.623-3.561v0c-0.14-0.279-0.259-0.552-0.358-0.818v0c-1.143-3.076-0.029-5.69 3.341-7.842v0c0.938-0.615 2.016-1.163 3.235-1.645v0l1.872 5.3c1.272 3.597 2.461 5.769 3.567 6.518v0c0.882 0.572 1.865 0.657 2.947 0.255v0c1.993-0.741 3.201-2.338 3.621-4.792v0c0.314-1.752 0.123-3.564-0.573-5.437v0c-1.359-3.658-3.855-5.712-7.486-6.164v0c-1.888-0.235-3.828 0.018-5.822 0.759v0c-3.633 1.35-5.841 3.654-6.625 6.913v0c-0.449 1.931-0.303 3.894 0.437 5.888v0c1.176 3.164 3.184 5.069 6.023 5.713v0c0.498 0.081 0.983 0.135 1.454 0.162z" fill="#b2572b" data-fill-palette-color="primary"></path><path d="M1.385 140.962c0-6.427 5.21-11.636 11.637-11.637 6.427 0 11.636 5.21 11.636 11.637 0 6.427-5.21 11.636-11.636 11.636-6.427 0-11.636-5.21-11.637-11.636z" fill="#b2572b" data-fill-palette-color="primary"></path><path d="M256.589 140.962c0-6.427 5.21-11.636 11.637-11.637 6.427 0 11.636 5.21 11.636 11.637 0 6.427-5.21 11.636-11.636 11.636-6.427 0-11.636-5.21-11.637-11.636z" fill="#b2572b" data-fill-palette-color="primary"></path></g><g id="text-1"><path d="M12.639 192.612l0.221 0.566 30.931-0.925 0.916 2.35 1.217-0.475-3.071-7.879-1.217 0.475 1.46 3.746-25.198 0.799 18.836-17.123 1.464 3.755 1.217-0.474-4.133-10.606-1.218 0.475 1.096 2.812-20.218 18.15c-1.576 1.404-2.407 2.413-2.494 3.026v0c-0.066 0.388-0.002 0.831 0.191 1.328z" fill="#b2572b" data-fill-palette-color="secondary"></path><path d="M37.211 231.688v0l-1.563-1.966 15.768-12.535-4.859-6.112-0.983 0.782 2.508 3.155-12.414 9.868c-1.21 0.962-2.271 1.141-3.182 0.538v0c-0.421-0.312-0.986-0.915-1.697-1.808v0l-0.983 0.781 7.21 9.069c0.576-0.458 0.733-0.906 0.47-1.345v0c-0.079-0.153-0.17-0.296-0.275-0.427zM57.543 213.08v0c0.92-0.731 1.254-1.661 1.003-2.79v0c-0.121-0.413-0.297-0.764-0.528-1.055v0c-0.731-0.92-1.674-1.244-2.83-0.972v0c-0.386 0.1-0.738 0.276-1.055 0.528v0c-0.972 0.773-1.299 1.74-0.98 2.901v0c0.126 0.365 0.305 0.693 0.537 0.984v0c0.731 0.92 1.664 1.23 2.798 0.932v0c0.386-0.1 0.738-0.276 1.055-0.528z" fill="#b2572b" data-fill-palette-color="secondary"></path><path d="M61.58 253.912v0c1.876 1.358 3.551 1.704 5.025 1.037v0c0.543-0.232 0.991-0.591 1.343-1.078v0c0.827-1.143 0.708-2.722-0.359-4.736v0c-0.217-0.449-0.604-1.146-1.162-2.091v0c-1.562-2.54-2.415-4.482-2.557-5.827v0c-0.138-1.467 0.226-2.799 1.093-3.997v0c1.358-1.876 3.343-2.447 5.955-1.715v0c1.209 0.333 2.371 0.904 3.487 1.712v0c1.794 1.299 3.069 2.801 3.825 4.507v0c0.57-0.787 1.086-1.097 1.549-0.929v0c0.184 0.091 0.369 0.204 0.554 0.339v0l-3.694 5.102-1.058-0.766c1.759-2.544 1.289-4.814-1.409-6.809v0c-2.04-1.477-3.737-1.792-5.09-0.947v0c-0.374 0.229-0.69 0.521-0.948 0.877v0c-0.843 1.165-0.72 2.767 0.371 4.806v0c0.248 0.463 0.661 1.154 1.238 2.072v0c1.549 2.488 2.398 4.407 2.546 5.757v0c0.158 1.44-0.197 2.758-1.063 3.955v0c-1.596 2.204-3.829 2.825-6.7 1.864v0c-1.115-0.349-2.202-0.907-3.263-1.675v0c-1.938-1.445-3.282-3.163-4.031-5.156v0c-0.511 0.705-0.983 0.984-1.418 0.836v0c-0.184-0.091-0.382-0.214-0.596-0.369v0l4.49-6.201 1.14 0.825c-2.487 3.55-2.243 6.419 0.732 8.607z" fill="#b2572b" data-fill-palette-color="secondary"></path><path d="M114.562 276.23v0l-2.419-0.71 5.671-19.328-7.589-2.227-0.353 1.205 3.964 1.163-3.062 10.437c-0.852 2.902-2.489 4.73-4.912 5.482v0c-1.081 0.351-2.107 0.384-3.079 0.099v0c-2.637-0.774-3.768-2.576-3.395-5.408v0c0.066-0.466 0.176-0.958 0.328-1.476v0l3.94-13.43-7.346-2.155-0.353 1.205 3.721 1.092-3.376 11.505c-1.583 5.516-0.093 8.961 4.471 10.336v0c2.416 0.709 4.688 0.306 6.814-1.209v0c0.793-0.569 1.5-1.252 2.121-2.048v0l-1.106 5.026 6.812 1.999c0.207-0.706 0.077-1.163-0.39-1.37v0c-0.12-0.07-0.274-0.133-0.461-0.188z" fill="#b2572b" data-fill-palette-color="secondary"></path><path d="M158.148 279.226v0c2.58-0.168 3.904-1.82 3.971-4.956v0c0.021-0.198 0.026-0.381 0.015-0.549v0l-1.317 0.034c-0.07 2.46-0.643 3.743-1.719 3.847v0c-0.873-0.011-1.382-0.854-1.524-2.53v0l-0.688-10.601c-0.311-4.79-2.87-7.164-7.678-7.122v0c-0.303 0.02-0.603 0.039-0.9 0.058v0c-3.753 0.244-6.209 1.279-7.369 3.107v0c-0.367 0.592-0.533 1.175-0.495 1.747v0c0.067 1.038 0.592 1.609 1.573 1.715v0c0.171 0.023 0.34 0.029 0.508 0.017v0c0.775-0.05 1.313-0.572 1.614-1.566v0c0.391-1.27 0.663-2.029 0.816-2.275v0c0.579-0.877 1.539-1.358 2.879-1.446v0c3.159-0.009 4.895 1.61 5.207 4.858v0l0.206 3.163c-7.869 0.511-12.266 2.444-13.192 5.799v0c-0.161 0.653-0.217 1.347-0.169 2.081v0c0.165 2.547 1.4 4.215 3.704 5.006v0c0.927 0.312 1.896 0.435 2.906 0.37v0c2.439-0.158 4.443-1.131 6.012-2.917v0c0.565-0.673 0.973-1.372 1.223-2.099v0c0.598 2.958 2.07 4.378 4.417 4.259zM148.023 277.864v0c-2.048 0.133-3.371-0.806-3.968-2.817v0c-0.132-0.465-0.216-0.984-0.253-1.557v0c-0.146-2.243 1.052-3.749 3.593-4.515v0c1.348-0.392 3.328-0.69 5.94-0.894v0l0.261 4.022c-0.348 2.343-1.466 4.046-3.352 5.11v0c-0.746 0.387-1.486 0.604-2.221 0.651z" fill="#b2572b" data-fill-palette-color="secondary"></path><path d="M194.01 267.979v0l-2.544 0.944-10.947-29.509-7.083 2.627 0.44 1.187 3.542-1.314 9.453 25.484c0.538 1.45 0.451 2.468-0.26 3.056v0c-0.416 0.334-1.159 0.7-2.228 1.097v0l0.436 1.177 10.815-4.012c-0.256-0.69-0.633-0.979-1.131-0.865v0c-0.138 0.015-0.302 0.058-0.493 0.128z" fill="#b2572b" data-fill-palette-color="secondary"></path><path d="M224.158 250.397v0l-2.057 1.441-11.56-16.495-6.394 4.481 0.721 1.028 3.301-2.313 9.101 12.987c0.887 1.266 1.002 2.336 0.344 3.209v0c-0.337 0.401-0.973 0.929-1.907 1.584v0l0.721 1.028 9.487-6.648c-0.422-0.603-0.86-0.786-1.314-0.551v0c-0.158 0.069-0.305 0.152-0.443 0.249zM206.811 228.979v0c-0.674-0.962-1.582-1.352-2.724-1.17v0c-0.419 0.096-0.781 0.25-1.085 0.463v0c-0.962 0.674-1.342 1.596-1.141 2.766v0c0.077 0.392 0.231 0.753 0.464 1.085v0c0.713 1.017 1.658 1.402 2.836 1.153v0c0.372-0.104 0.71-0.263 1.014-0.475v0c0.962-0.674 1.329-1.586 1.1-2.737v0c-0.077-0.392-0.231-0.753-0.464-1.085z" fill="#b2572b" data-fill-palette-color="secondary"></path><path d="M250.756 222.852l-5.668 7.073-6.524-22.709-0.822-0.659-10.639 13.277 4.82 4.446 0.469-0.585-1.398-2.677c-0.799-1.583-0.77-2.936 0.086-4.058v0l5.066-6.322 6.168 23.072 0.861 0.69 11.494-14.343-5.84-4.874-0.443 0.553 1.792 2.201c1.206 1.442 1.547 2.814 1.023 4.116v0c-0.111 0.3-0.259 0.567-0.445 0.799z" fill="#b2572b" data-fill-palette-color="secondary"></path><path d="M251.246 180.82v0c0.835-2.196 2.313-3.303 4.435-3.319v0c0.689-0.027 1.381 0.091 2.075 0.355v0c1.565 0.595 2.236 1.709 2.013 3.343v0c-0.142 0.849-0.502 1.987-1.081 3.414v0l-2.041 4.944c-3.55-1.529-5.457-3.601-5.72-6.215v0c-0.097-0.867 0.01-1.708 0.319-2.522zM269.135 178.247v0l-0.872 1.012c1.968 2.005 2.645 4.291 2.03 6.86v0c-0.088 0.328-0.185 0.63-0.291 0.907v0c-1.254 3.301-4.005 4.628-8.252 3.983v0c-1.194-0.165-2.457-0.482-3.787-0.952v0l2.242-5.616c1.519-3.807 2.095-6.408 1.73-7.803v0c-0.31-1.085-1.045-1.849-2.206-2.29v0c-2.133-0.811-4.239-0.372-6.318 1.315v0c-1.494 1.195-2.622 2.795-3.384 4.802v0c-1.489 3.919-0.925 7.347 1.692 10.285v0c1.364 1.522 3.113 2.689 5.247 3.5v0c3.888 1.477 7.305 1.18 10.251-0.893v0c1.731-1.249 3.002-2.94 3.813-5.073v0c1.288-3.389 1.012-6.35-0.828-8.884v0c-0.348-0.414-0.704-0.798-1.067-1.153z" fill="#b2572b" data-fill-palette-color="secondary"></path></g></svg></g></svg></g></svg></g></svg></g><defs></defs></svg><rect width="280" height="280" fill="none" stroke="none" visibility="hidden"></rect></g></svg></g></svg>